<svg width="345" height="32" fill="none" xmlns="http://www.w3.org/2000/svg"><path d="M28.035.92c-.747.047-1.295.14-1.645.28-.327.14-.548.408-.665.805-.117.397-.175 1.038-.175 1.925v17.36c0 .887.058 1.528.175 1.925.14.397.373.665.7.805.327.14.863.233 1.61.28v.7c-1.26-.07-3.22-.105-5.88-.105-2.683 0-4.748.035-6.195.105v-.7c.747-.047 1.283-.14 1.61-.28.35-.14.583-.408.7-.805.117-.397.175-1.038.175-1.925v-8.4H10.57v8.4c0 .887.058 1.528.175 1.925.14.397.373.665.7.805.327.14.863.233 1.61.28v.7c-1.353-.07-3.302-.105-5.845-.105-2.823 0-4.9.035-6.23.105v-.7c.747-.047 1.283-.14 1.61-.28.35-.14.583-.408.7-.805.117-.397.175-1.038.175-1.925V3.93c0-.887-.07-1.528-.21-1.925-.117-.397-.338-.665-.665-.805S1.727.967.98.92v-.7c1.33.07 3.407.105 6.23.105 2.52 0 4.468-.035 5.845-.105v.7c-.747.047-1.295.14-1.645.28-.327.14-.548.408-.665.805-.117.397-.175 1.038-.175 1.925v8.26h7.875V3.93c0-.887-.07-1.528-.21-1.925-.117-.397-.338-.665-.665-.805s-.863-.233-1.61-.28v-.7c1.447.07 3.512.105 6.195.105 2.66 0 4.62-.035 5.88-.105v.7zm11.38 5.425c2.87 0 5.087.758 6.65 2.275 1.563 1.493 2.345 3.932 2.345 7.315 0 3.383-.782 5.822-2.345 7.315-1.563 1.493-3.78 2.24-6.65 2.24-2.87 0-5.087-.747-6.65-2.24-1.563-1.493-2.345-3.932-2.345-7.315 0-3.383.782-5.822 2.345-7.315 1.563-1.517 3.78-2.275 6.65-2.275zm0 .7c-.747 0-1.342.735-1.785 2.205-.443 1.47-.665 3.698-.665 6.685 0 2.987.222 5.215.665 6.685.443 1.447 1.038 2.17 1.785 2.17.747 0 1.342-.723 1.785-2.17.443-1.47.665-3.698.665-6.685 0-2.987-.222-5.215-.665-6.685-.443-1.47-1.038-2.205-1.785-2.205zm23.161 8.54c2.777.047 4.737.455 5.88 1.225 1.167.77 1.75 1.937 1.75 3.5 0 1.54-.548 2.707-1.645 3.5-1.097.793-2.917 1.19-5.46 1.19-.35 0-1.178-.023-2.485-.07a154.3 154.3 0 00-4.13-.07c-.793 0-2.543.047-5.25.14v-.735c.723 0 1.225-.175 1.505-.525.303-.373.455-1.038.455-1.995v-11.62c0-.957-.152-1.61-.455-1.96-.28-.373-.782-.56-1.505-.56V6.87c2.52.093 4.153.14 4.9.14a129 129 0 003.745-.07 86.96 86.96 0 012.45-.07c4.83 0 7.245 1.353 7.245 4.06 0 1.26-.595 2.31-1.785 3.15-1.167.84-2.905 1.342-5.215 1.505zm-3.08-.07c1.47-.023 2.45-.35 2.94-.98.513-.653.77-1.692.77-3.115 0-1.19-.175-2.123-.525-2.8-.327-.677-.957-1.015-1.89-1.015-.513 0-.863.163-1.05.49-.163.327-.245 1.003-.245 2.03v5.39zm1.4 8.75c1.097 0 1.843-.362 2.24-1.085.42-.723.63-1.668.63-2.835 0-1.47-.303-2.52-.91-3.15-.607-.653-1.61-.98-3.01-.98h-.35v5.53c0 1.027.093 1.703.28 2.03.21.327.583.49 1.12.49zM82.26 6.345c2.87 0 5.086.758 6.65 2.275 1.563 1.493 2.345 3.932 2.345 7.315 0 3.383-.782 5.822-2.345 7.315-1.564 1.493-3.78 2.24-6.65 2.24-2.87 0-5.087-.747-6.65-2.24-1.564-1.493-2.345-3.932-2.345-7.315 0-3.383.781-5.822 2.345-7.315 1.563-1.517 3.78-2.275 6.65-2.275zm0 .7c-.747 0-1.342.735-1.785 2.205-.444 1.47-.665 3.698-.665 6.685 0 2.987.221 5.215.665 6.685.443 1.447 1.038 2.17 1.785 2.17.746 0 1.341-.723 1.785-2.17.443-1.47.665-3.698.665-6.685 0-2.987-.222-5.215-.665-6.685-.444-1.47-1.039-2.205-1.785-2.205zm21.131-.7c.956 0 1.831.105 2.625.315.816.187 1.481.432 1.995.735a4.153 4.153 0 011.54 1.505c.373.63.56 1.342.56 2.135 0 .98-.315 1.797-.945 2.45-.63.63-1.435.945-2.415.945-1.004 0-1.797-.28-2.38-.84-.56-.583-.84-1.353-.84-2.31 0-.84.268-1.575.805-2.205a3.963 3.963 0 012.065-1.295c-.35-.28-.817-.42-1.4-.42-1.494 0-2.544.805-3.15 2.415-.607 1.587-.91 3.477-.91 5.67 0 2.24.42 3.838 1.26 4.795.84.957 1.878 1.435 3.115 1.435 1.703 0 3.115-.782 4.235-2.345l.595.21a9.674 9.674 0 01-2.625 4.2c-1.214 1.167-2.777 1.75-4.69 1.75-2.544 0-4.585-.758-6.125-2.275s-2.31-3.943-2.31-7.28c0-3.197.816-5.588 2.45-7.175 1.656-1.61 3.838-2.415 6.545-2.415zm28.857.525c-.163 2.053-.245 3.873-.245 5.46 0 1.073.035 1.913.105 2.52h-.805c-.396-1.633-.863-2.987-1.4-4.06-.536-1.097-1.096-1.902-1.68-2.415-.56-.513-1.085-.77-1.575-.77h-1.015v13.79c0 1.073.245 1.82.735 2.24.514.42 1.272.63 2.275.63V25l-1.015-.035c-2.66-.07-4.363-.105-5.11-.105-.793 0-2.52.035-5.18.105l-1.015.035v-.735c1.074 0 1.844-.152 2.31-.455.467-.327.7-1.015.7-2.065V7.605h-1.015c-.49 0-1.026.257-1.61.77-.56.513-1.108 1.318-1.645 2.415-.536 1.073-1.003 2.427-1.4 4.06h-.805c.07-.607.105-1.447.105-2.52 0-1.587-.081-3.407-.245-5.46h3.955l1.925.035c1.12.07 2.404.105 3.85.105 1.494 0 2.8-.035 3.92-.105l1.925-.035h3.955zm24.645.735c-.723 0-1.237.187-1.54.56-.28.35-.42 1.003-.42 1.96v11.62c0 .957.14 1.622.42 1.995.303.35.817.525 1.54.525V25c-2.52-.093-4.153-.14-4.9-.14-.793 0-2.45.047-4.97.14v-.735c.607 0 1.027-.175 1.26-.525.233-.373.35-1.038.35-1.995V11.21l-5.635 11.095c.047.747.187 1.26.42 1.54.233.28.63.42 1.19.42V25c-2.333-.093-3.873-.14-4.62-.14-.793 0-2.543.047-5.25.14v-.735c.723 0 1.225-.175 1.505-.525.303-.373.455-1.038.455-1.995v-11.62c0-.957-.152-1.61-.455-1.96-.28-.373-.782-.56-1.505-.56V6.87c2.52.093 4.153.14 4.9.14.793 0 2.45-.047 4.97-.14v.735c-.607 0-1.027.187-1.26.56-.233.35-.35 1.003-.35 1.96v10.64l5.635-11.025c-.023-.817-.163-1.377-.42-1.68-.233-.303-.63-.455-1.19-.455V6.87c2.333.093 3.873.14 4.62.14.793 0 2.543-.047 5.25-.14v.735zm30.926 14.735c.28.677.525 1.155.735 1.435.233.257.583.42 1.05.49V25c-.933.14-1.843.21-2.73.21-1.633 0-2.928-.292-3.885-.875-.933-.583-1.563-1.575-1.89-2.975a19.787 19.787 0 00-.7-2.345c-.28-.863-.642-1.54-1.085-2.03-.56-.653-1.365-.98-2.415-.98l-.49.035v5.705c0 .957.14 1.622.42 1.995.303.35.817.525 1.54.525V25c-2.707-.093-4.445-.14-5.215-.14-.817 0-2.485.047-5.005.14v-.735c.723 0 1.225-.175 1.505-.525.303-.373.455-1.038.455-1.995v-11.62c0-.957-.152-1.61-.455-1.96-.28-.373-.782-.56-1.505-.56V6.87c2.707.093 4.468.14 5.285.14.77 0 2.415-.047 4.935-.14v.735c-.723 0-1.237.187-1.54.56-.28.35-.42 1.003-.42 1.96v5.285c.91-.07 1.598-.245 2.065-.525.49-.28.863-.688 1.12-1.225.257-.537.513-1.33.77-2.38.327-1.283.618-2.252.875-2.905.28-.653.688-1.155 1.225-1.505.537-.35 1.295-.525 2.275-.525 1.33 0 2.322.303 2.975.91.677.607 1.015 1.423 1.015 2.45 0 1.003-.292 1.797-.875 2.38-.583.56-1.33.84-2.24.84a4.24 4.24 0 01-2.345-.7c-.7-.467-1.05-1.167-1.05-2.1 0-.583.163-1.143.49-1.68.327-.537.84-.992 1.54-1.365-.7.047-1.237.21-1.61.49s-.653.665-.84 1.155c-.187.49-.408 1.248-.665 2.275l-.21.875c-.233.957-.49 1.692-.77 2.205-.257.49-.665.875-1.225 1.155.56-.07 1.097-.105 1.61-.105 2.287 0 3.967.618 5.04 1.855.327.373.583.793.77 1.26.21.467.443 1.097.7 1.89.257.817.513 1.552.77 2.205zm18.56-15.365c1.33 0 2.229-.047 2.695-.14v.735c-.49.163-.945.502-1.365 1.015-.396.513-.77 1.307-1.12 2.38l-4.375 13.02-1.47 4.235c-.42 1.213-.933 2.053-1.54 2.52-.723.56-1.808.84-3.255.84a6.574 6.574 0 01-3.255-.84c-1.003-.537-1.505-1.353-1.505-2.45 0-.817.315-1.47.945-1.96.63-.49 1.459-.735 2.485-.735.98 0 1.75.222 2.31.665.56.443.84 1.085.84 1.925 0 .56-.198 1.085-.595 1.575-.373.513-.933.887-1.68 1.12.234.047.63.07 1.19.07 1.61 0 2.719-.933 3.325-2.8l.175-.595-8.155-18.025c-.35-.793-.7-1.318-1.05-1.575-.326-.257-.653-.385-.98-.385v-.735c1.867.14 3.769.21 5.705.21 1.517 0 3.209-.07 5.075-.21v.735c-.676 0-1.201.047-1.575.14-.35.093-.525.303-.525.63 0 .187.047.373.14.56l4.305 10.255 1.47-4.48c.444-1.353.665-2.543.665-3.57 0-1.097-.233-1.948-.7-2.555-.466-.607-1.085-.933-1.855-.98v-.735c.864.093 2.089.14 3.675.14zm21.3.63c-.607 0-1.027.175-1.26.525-.233.35-.35 1.015-.35 1.995v11.62c0 .957.117 1.622.35 1.995.233.35.653.525 1.26.525V25c-2.333-.093-3.885-.14-4.655-.14-.77 0-2.508.047-5.215.14v-.735c.723 0 1.225-.175 1.505-.525.303-.373.455-1.038.455-1.995v-11.62c0-.957-.117-1.61-.35-1.96-.233-.373-.653-.56-1.26-.56h-.315c-.443 0-.758.082-.945.245-.187.14-.315.35-.385.63-.047.28-.105.828-.175 1.645-.257 2.847-.525 5.168-.805 6.965-.257 1.773-.653 3.36-1.19 4.76-.49 1.237-1.073 2.158-1.75 2.765a3.531 3.531 0 01-2.38.875c-1.003 0-1.913-.327-2.73-.98s-1.225-1.622-1.225-2.905c0-1.073.303-1.925.91-2.555.63-.63 1.447-.945 2.45-.945.98 0 1.727.303 2.24.91.537.583.805 1.307.805 2.17 0 1.587-.933 2.777-2.8 3.57.14.047.315.07.525.07 1.33 0 2.415-1.05 3.255-3.15.537-1.353.945-2.998 1.225-4.935.303-1.96.548-4.165.735-6.615.07-.933-.128-1.587-.595-1.96-.443-.373-1.167-.56-2.17-.56V6.87c.513.047 1.213.07 2.1.07.607 0 1.062-.012 1.365-.035l2.065-.035c.933 0 1.937.023 3.01.07.887.047 1.54.07 1.96.07.56 0 2.007-.047 4.34-.14v.735zm13.274 6.86c2.847 0 4.994.467 6.44 1.4 1.447.91 2.17 2.1 2.17 3.57 0 .957-.315 1.855-.945 2.695-.63.84-1.633 1.528-3.01 2.065-1.376.537-3.138.805-5.285.805-.42 0-1.12-.023-2.1-.07a69.293 69.293 0 00-2.8-.07c-.7 0-2.31.047-4.83.14v-.735c.607 0 1.027-.175 1.26-.525.234-.373.35-1.038.35-1.995v-11.62c0-.957-.116-1.61-.35-1.96-.233-.373-.653-.56-1.26-.56V6.87c2.334.093 3.885.14 4.655.14.77 0 2.509-.047 5.215-.14v.735c-.723 0-1.236.187-1.54.56-.28.35-.42 1.003-.42 1.96V14.5l2.45-.035zm-1.12 9.8c2.194 0 3.29-1.482 3.29-4.445 0-1.657-.35-2.835-1.05-3.535-.676-.7-1.831-1.05-3.465-1.05h-.105v7.735c0 .56.082.922.245 1.085.164.14.525.21 1.085.21zM270.464 6.87c-.163 2.053-.245 3.873-.245 5.46 0 1.073.035 1.913.105 2.52h-.805c-.397-1.633-.863-2.987-1.4-4.06-.537-1.097-1.097-1.902-1.68-2.415-.56-.513-1.085-.77-1.575-.77h-1.015v13.79c0 1.073.245 1.82.735 2.24.513.42 1.272.63 2.275.63V25l-1.015-.035c-2.66-.07-4.363-.105-5.11-.105-.793 0-2.52.035-5.18.105l-1.015.035v-.735c1.073 0 1.843-.152 2.31-.455.467-.327.7-1.015.7-2.065V7.605h-1.015c-.49 0-1.027.257-1.61.77-.56.513-1.108 1.318-1.645 2.415-.537 1.073-1.003 2.427-1.4 4.06h-.805c.07-.607.105-1.447.105-2.52 0-1.587-.082-3.407-.245-5.46h3.955l1.925.035c1.12.07 2.403.105 3.85.105 1.493 0 2.8-.035 3.92-.105l1.925-.035h3.955zm17.742.105c1.33 0 2.229-.047 2.695-.14v.735c-.49.163-.945.502-1.365 1.015-.396.513-.77 1.307-1.12 2.38l-4.375 13.02-1.47 4.235c-.42 1.213-.933 2.053-1.54 2.52-.723.56-1.808.84-3.255.84a6.574 6.574 0 01-3.255-.84c-1.003-.537-1.505-1.353-1.505-2.45 0-.817.315-1.47.945-1.96.63-.49 1.459-.735 2.485-.735.98 0 1.75.222 2.31.665.56.443.84 1.085.84 1.925 0 .56-.198 1.085-.595 1.575-.373.513-.933.887-1.68 1.12.234.047.63.07 1.19.07 1.61 0 2.719-.933 3.325-2.8l.175-.595-8.155-18.025c-.35-.793-.7-1.318-1.05-1.575-.326-.257-.653-.385-.98-.385v-.735c1.867.14 3.769.21 5.705.21 1.517 0 3.209-.07 5.075-.21v.735c-.676 0-1.201.047-1.575.14-.35.093-.525.303-.525.63 0 .187.047.373.14.56l4.305 10.255 1.47-4.48c.444-1.353.665-2.543.665-3.57 0-1.097-.233-1.948-.7-2.555-.466-.607-1.085-.933-1.855-.98v-.735c.864.093 2.089.14 3.675.14zm18.056-.63c1.82 0 3.29.747 4.41 2.24 1.12 1.493 1.68 3.675 1.68 6.545 0 3.71-.747 6.37-2.24 7.98-1.494 1.587-3.465 2.38-5.915 2.38-1.354 0-2.439-.222-3.255-.665v2.905c0 1.073.245 1.82.735 2.24.513.42 1.271.63 2.275.63v.735l-1.015-.035c-2.8-.07-4.609-.105-5.425-.105-.7 0-2.31.047-4.83.14V30.6c.723 0 1.225-.187 1.505-.56.303-.35.455-1.003.455-1.96V10.685c0-1.073-.152-1.855-.455-2.345-.28-.49-.782-.735-1.505-.735V6.87a22.5 22.5 0 002.17.105c2.426 0 4.456-.163 6.09-.49V8.97c1.073-1.75 2.846-2.625 5.32-2.625zm-4.095 18.095c1.283 0 2.205-.688 2.765-2.065.583-1.4.875-3.547.875-6.44 0-2.87-.21-4.877-.63-6.02-.42-1.167-.992-1.75-1.715-1.75-.677 0-1.272.245-1.785.735-.49.467-.735 1.062-.735 1.785V24.16c.303.187.711.28 1.225.28zm23.655-9.975c2.847 0 4.994.467 6.44 1.4 1.447.91 2.17 2.1 2.17 3.57 0 .957-.315 1.855-.945 2.695-.63.84-1.633 1.528-3.01 2.065-1.376.537-3.138.805-5.285.805-.42 0-1.12-.023-2.1-.07a69.293 69.293 0 00-2.8-.07c-.7 0-2.31.047-4.83.14v-.735c.607 0 1.027-.175 1.26-.525.234-.373.35-1.038.35-1.995v-11.62c0-.957-.116-1.61-.35-1.96-.233-.373-.653-.56-1.26-.56V6.87c2.334.093 3.885.14 4.655.14.77 0 2.509-.047 5.215-.14v.735c-.723 0-1.236.187-1.54.56-.28.35-.42 1.003-.42 1.96V14.5l2.45-.035zm18.725-6.86c-.723 0-1.236.187-1.54.56-.28.35-.42 1.003-.42 1.96v11.62c0 .957.14 1.622.42 1.995.304.35.817.525 1.54.525V25c-2.706-.093-4.456-.14-5.25-.14-.793 0-2.45.047-4.97.14v-.735c.724 0 1.225-.175 1.505-.525.304-.373.455-1.038.455-1.995v-11.62c0-.957-.151-1.61-.455-1.96-.28-.373-.781-.56-1.505-.56V6.87c2.707.093 4.48.14 5.32.14.747 0 2.38-.047 4.9-.14v.735zm-19.845 16.66c2.194 0 3.29-1.482 3.29-4.445 0-1.657-.35-2.835-1.05-3.535-.676-.7-1.831-1.05-3.465-1.05h-.105v7.735c0 .56.082.922.245 1.085.164.14.525.21 1.085.21z" fill="#000"/></svg>